<svg xmlns="http://www.w3.org/2000/svg" viewBox="0 0 64 64">
<rect width="64" height="64" rx="12" fill="#fff"/>
<path d="M15 31c0-11 8.5-19 19-19 9.7 0 17.6 6.8 18.8 16 .9 7.2-2.3 12.1-7.8 16.1-2.7 2-4.1 4.5-4.1 7.9H27.2c-.7-3.2-3-5.1-6.1-6.1-4-1.3-6.1-4.6-6.1-8.6h6.8c-4-.9-6.8-3.2-6.8-6.3z" fill="#7BD5F4" stroke="#111" stroke-width="2.2" stroke-linejoin="round"/>
<circle cx="27" cy="29" r="2.7" fill="#111"/><circle cx="40" cy="29" r="2.7" fill="#111"/>
<path d="M30 36c3 2.2 6 2.2 9 0" fill="none" stroke="#111" stroke-width="2.2" stroke-linecap="round"/>
<circle cx="49" cy="22" r="3" fill="#fff" stroke="#111" stroke-width="1.5"/>
</svg>