<svg xmlns="http://www.w3.org/2000/svg" viewBox="0 0 900 700"><rect width="900" height="700" fill="#7b684d"/><path d="M80 120 C240 30 300 210 430 130 S650 90 820 180 L780 590 C620 520 520 650 380 560 S190 620 80 520Z" fill="#d9c89c" stroke="#4d463b" stroke-width="8"/><path d="M120 460 C250 360 330 470 450 350 S650 300 790 220 M170 160 C300 220 390 190 520 260 S690 430 760 520" fill="none" stroke="#a14f3e" stroke-width="8"/><path d="M170 260 L690 470 M240 530 L650 120" stroke="#6a8b91" stroke-width="12" opacity=".8"/><circle cx="450" cy="350" r="15" fill="#2d2924"/></svg>